# xmcd
#
# Track frame offsets:
#	150
#	15887
#	27082
#	42470
#	68097
#	92023
#	117401
#	132305
#	145140
#	166356
#	182808
#	202355
#	225756
#	248395
#
# Disc length: 3567 seconds
#
# Revision: 1
# Processed by: cddbd v1.5.1PL0 Copyright (c) Steve Scherf et al.
# Submitted via: EasyCDDAExtractor 5.0.6
#
DISCID=b30ded0e
DTITLE=Crooked Fingers - Dignity And Shame
DYEAR=2005
DGENRE=Indie
TTITLE0=Islero
TTITLE1=Weary arms
TTITLE2=Call To Love
TTITLE3=Twilight Creeps
TTITLE4=Destroyer
TTITLE5=You Must Build A Fire
TTITLE6=Valerie
TTITLE7=Andalucia
TTITLE8=Sleep All Summer
TTITLE9=Coldways
TTITLE10=Wrecking Ball
TTITLE11=Dignity And Shame
TTITLE12=New Drink For The Old Drunk
TTITLE13=The Ballad Of El Cuchillo
EXTD=
EXTT0=
EXTT1=
EXTT2=
EXTT3=
EXTT4=
EXTT5=
EXTT6=
EXTT7=
EXTT8=
EXTT9=
EXTT10=
EXTT11=
EXTT12=
EXTT13=
PLAYORDER=
